<?xml version="1.0" encoding="iso-8859-1"?>
<!-- Generator: Adobe Illustrator 19.0.0, SVG Export Plug-In . SVG Version: 6.00 Build 0)  -->
<svg version="1.1" id="Capa_1" xmlns="http://www.w3.org/2000/svg" xmlns:xlink="http://www.w3.org/1999/xlink" x="0px" y="0px"
	 viewBox="0 0 512 512" style="enable-background:new 0 0 512 512;" xml:space="preserve">
<path id="SVGCleanerId_0" style="fill:#54BBFF;" d="M256,0l-61.811,256L256,512c141.385,0,256-114.615,256-256S397.385,0,256,0z"/>
<path id="SVGCleanerId_1" style="fill:#8DD2FF;" d="M0,256c0,141.385,114.615,256,256,256V0C114.615,0,0,114.615,0,256z"/>
<path style="fill:#C6E8FF;" d="M256,30.905v450.189c124.316,0,225.095-100.778,225.095-225.095S380.316,30.905,256,30.905z"/>
<path style="fill:#FFFFFF;" d="M450.189,256c0-124.316-86.941-225.095-194.189-225.095C131.684,30.905,30.905,131.684,30.905,256
	S131.684,481.095,256,481.095C363.248,481.095,450.189,380.316,450.189,256z"/>
<path style="fill:#54BBFF;" d="M306.994,395.59c-11.379,0-20.604-9.224-20.604-20.604V237.393l-11.453,26.723
	c-3.246,7.576-10.695,12.488-18.938,12.488c-8.241,0-15.691-4.912-18.938-12.488l-11.453-26.723v137.593
	c0,11.379-9.224,20.604-20.604,20.604c-11.379,0-20.604-9.224-20.604-20.604V137.014c0-9.783,6.879-18.216,16.461-20.183
	c9.584-1.968,19.227,3.075,23.08,12.066L256,203.695l32.056-74.797c3.853-8.991,13.502-14.033,23.08-12.066
	c9.583,1.968,16.461,10.401,16.461,20.183v237.972C327.598,386.365,318.373,395.59,306.994,395.59z"/>
<g>
	<path id="SVGCleanerId_0_1_" style="fill:#54BBFF;" d="M256,0l-61.811,256L256,512c141.385,0,256-114.615,256-256S397.385,0,256,0z
		"/>
</g>
<g>
	<path id="SVGCleanerId_1_1_" style="fill:#8DD2FF;" d="M0,256c0,141.385,114.615,256,256,256V0C114.615,0,0,114.615,0,256z"/>
</g>
<path style="fill:#0789DE;" d="M256,30.905v450.189c124.316,0,225.095-100.778,225.095-225.095S380.316,30.905,256,30.905z"/>
<path style="fill:#2EA2EF;" d="M450.189,256c0-124.316-86.941-225.095-194.189-225.095C131.684,30.905,30.905,131.684,30.905,256
	S131.684,481.095,256,481.095C363.248,481.095,450.189,380.316,450.189,256z"/>
<path style="fill:#FFFFFF;" d="M306.994,395.59c-11.379,0-20.604-9.224-20.604-20.604V237.393l-11.453,26.723
	c-3.246,7.576-10.695,12.488-18.938,12.488c-8.241,0-15.691-4.912-18.938-12.488l-11.453-26.723v137.593
	c0,11.379-9.224,20.604-20.604,20.604c-11.379,0-20.604-9.224-20.604-20.604V137.014c0-9.783,6.879-18.216,16.461-20.183
	c9.584-1.968,19.227,3.075,23.08,12.066L256,203.695l32.056-74.797c3.853-8.991,13.502-14.033,23.08-12.066
	c9.583,1.968,16.461,10.401,16.461,20.183v237.972C327.598,386.365,318.373,395.59,306.994,395.59z"/>
<g>
</g>
<g>
</g>
<g>
</g>
<g>
</g>
<g>
</g>
<g>
</g>
<g>
</g>
<g>
</g>
<g>
</g>
<g>
</g>
<g>
</g>
<g>
</g>
<g>
</g>
<g>
</g>
<g>
</g>
</svg>
